<?xml version="1.0" encoding="UTF-8" standalone="no"?>
<svg xmlns:ffdec="https://www.free-decompiler.com/flash" xmlns:xlink="http://www.w3.org/1999/xlink" ffdec:objectType="shape" height="22.0px" width="63.0px" xmlns="http://www.w3.org/2000/svg">
  <g transform="matrix(1.0, 0.0, 0.0, 1.0, 0.0, 0.0)">
    <path d="M0.0 21.0 L1.0 21.0 3.95 21.0 58.8 21.0 62.0 21.0 63.0 21.0 63.0 22.0 58.8 22.0 3.95 22.0 0.0 22.0 0.0 21.0" fill="#b7babc" fill-opacity="0.3019608" fill-rule="evenodd" stroke="none"/>
    <path d="M0.0 21.0 L0.0 20.3 0.0 4.0 Q0.0 2.3 1.15 1.15 2.3 0.0 4.0 0.0 L58.8 0.0 59.0 0.0 Q60.65 0.0 61.85 1.15 63.0 2.3 63.0 4.0 L63.0 20.3 63.0 21.0 62.0 21.0 62.0 20.3 62.0 4.0 Q62.0 1.0 59.0 1.0 L58.8 1.0 4.0 1.0 Q1.0 1.0 1.0 4.0 L1.0 20.3 1.0 21.0 0.0 21.0" fill="url(#gradient0)" fill-rule="evenodd" stroke="none"/>
    <path d="M1.0 21.0 L1.0 20.3 1.0 4.0 Q1.0 1.0 4.0 1.0 L58.8 1.0 59.0 1.0 Q62.0 1.0 62.0 4.0 L62.0 20.3 62.0 21.0 58.8 21.0 3.95 21.0 1.0 21.0" fill="url(#gradient1)" fill-rule="evenodd" stroke="none"/>
    <path d="M59.0 1.0 Q61.95 1.0 62.0 4.0 L62.0 16.0 58.8 16.0 3.95 16.0 1.0 16.0 1.0 4.0 Q1.0 1.0 4.0 1.0 L58.8 1.0 59.0 1.0" fill="url(#gradient2)" fill-rule="evenodd" stroke="none"/>
  </g>
  <defs>
    <linearGradient gradientTransform="matrix(0.0, -0.0127, 0.0127, 0.0, 34.1, 11.6)" gradientUnits="userSpaceOnUse" id="gradient0" spreadMethod="pad" x1="-819.2" x2="819.2">
      <stop offset="0.0" stop-color="#b7babc" stop-opacity="0.3019608"/>
      <stop offset="1.0" stop-color="#c7cbcd" stop-opacity="0.3019608"/>
    </linearGradient>
    <linearGradient gradientTransform="matrix(0.0, -0.0127, 0.0127, 0.0, 34.1, 11.6)" gradientUnits="userSpaceOnUse" id="gradient1" spreadMethod="pad" x1="-819.2" x2="819.2">
      <stop offset="0.0" stop-color="#d2d2d2" stop-opacity="0.3019608"/>
      <stop offset="1.0" stop-color="#f9f9f9" stop-opacity="0.3019608"/>
    </linearGradient>
    <linearGradient gradientTransform="matrix(0.0, -0.0092, 0.0183, 0.0, 61.25, 8.45)" gradientUnits="userSpaceOnUse" id="gradient2" spreadMethod="pad" x1="-819.2" x2="819.2">
      <stop offset="0.0" stop-color="#cccccc" stop-opacity="0.0"/>
      <stop offset="1.0" stop-color="#ffffff" stop-opacity="0.2"/>
    </linearGradient>
  </defs>
</svg>
