<?xml version="1.0" encoding="UTF-8" standalone="no"?>
<svg xmlns:ffdec="https://www.free-decompiler.com/flash" xmlns:xlink="http://www.w3.org/1999/xlink" ffdec:objectType="shape" height="4.0px" width="150.0px" xmlns="http://www.w3.org/2000/svg">
  <g transform="matrix(1.0, 0.0, 0.0, 1.0, 0.0, 0.0)">
    <path d="M1.0 1.2 L1.0 0.95 149.0 1.0 149.0 1.2 149.0 2.7 149.0 3.05 1.0 3.0 1.0 2.7 1.0 1.2" fill="url(#gradient0)" fill-rule="evenodd" stroke="none"/>
    <path d="M1.0 1.2 L1.0 2.7 1.0 3.0 149.0 3.0 149.0 2.7 149.0 1.2 149.0 1.0 1.0 1.0 1.0 1.2 M0.0 0.0 L0.95 0.0 149.0 0.0 150.0 0.0 150.0 1.2 150.0 2.7 150.0 4.0 149.0 4.0 0.95 4.0 0.0 4.0 0.0 2.7 0.0 1.2 0.0 0.0" fill="url(#gradient1)" fill-rule="evenodd" stroke="none"/>
  </g>
  <defs>
    <linearGradient gradientTransform="matrix(0.0, -0.0083, 0.0083, 0.0, 6.0, 7.1)" gradientUnits="userSpaceOnUse" id="gradient0" spreadMethod="pad" x1="-819.2" x2="819.2">
      <stop offset="0.0" stop-color="#cccccc" stop-opacity="0.4"/>
      <stop offset="1.0" stop-color="#ffffff" stop-opacity="0.6"/>
    </linearGradient>
    <linearGradient gradientTransform="matrix(0.0, -0.0079, 0.0079, 0.0, 106.5, 6.45)" gradientUnits="userSpaceOnUse" id="gradient1" spreadMethod="pad" x1="-819.2" x2="819.2">
      <stop offset="0.0" stop-color="#5b5d5e"/>
      <stop offset="1.0" stop-color="#b7babc"/>
    </linearGradient>
  </defs>
</svg>
