<?xml version="1.0" encoding="UTF-8" standalone="no"?>
<svg xmlns:ffdec="https://www.free-decompiler.com/flash" xmlns:xlink="http://www.w3.org/1999/xlink" ffdec:objectType="shape" height="4.0px" width="53.0px" xmlns="http://www.w3.org/2000/svg">
  <g transform="matrix(1.0, 0.0, 0.0, 1.0, 0.0, 0.0)">
    <path d="M52.0 3.05 L1.0 3.0 1.0 2.95 1.0 0.95 52.0 1.0 52.0 2.95 52.0 3.05" fill="url(#gradient0)" fill-rule="evenodd" stroke="none"/>
    <path d="M52.0 3.0 L52.0 2.95 52.0 1.0 1.0 1.0 1.0 2.95 1.0 3.0 52.0 3.0 M0.0 0.0 L0.95 0.0 52.0 0.0 53.0 0.0 53.0 0.95 53.0 2.95 53.0 4.0 52.0 4.0 0.95 4.0 0.0 4.0 0.0 2.95 0.0 0.95 0.0 0.0" fill="url(#gradient1)" fill-rule="evenodd" stroke="none"/>
  </g>
  <defs>
    <linearGradient gradientTransform="matrix(0.0, -0.0083, 0.0083, 0.0, 6.0, 7.1)" gradientUnits="userSpaceOnUse" id="gradient0" spreadMethod="pad" x1="-819.2" x2="819.2">
      <stop offset="0.0" stop-color="#99d7fe"/>
      <stop offset="1.0" stop-color="#d9f0fe"/>
    </linearGradient>
    <linearGradient gradientTransform="matrix(0.0, -0.0079, 0.0079, 0.0, 106.5, 6.45)" gradientUnits="userSpaceOnUse" id="gradient1" spreadMethod="pad" x1="-819.2" x2="819.2">
      <stop offset="0.0" stop-color="#0075bf"/>
      <stop offset="0.9921568627450981" stop-color="#009dff"/>
    </linearGradient>
  </defs>
</svg>
