<?xml version="1.0" encoding="UTF-8" standalone="no"?>
<svg xmlns:ffdec="https://www.free-decompiler.com/flash" xmlns:xlink="http://www.w3.org/1999/xlink" ffdec:objectType="shape" height="404.0px" width="404.0px" xmlns="http://www.w3.org/2000/svg">
  <g transform="matrix(1.0, 0.0, 0.0, 1.0, 2.0, 2.0)">
    <path d="M185.45 8.25 L182.2 10.35 Q180.45 11.7 179.9 13.45 179.05 12.85 179.15 10.85 179.25 8.9 180.05 8.25 L185.45 8.25" fill="#ffffff" fill-rule="evenodd" stroke="none"/>
    <path d="M229.5 18.65 Q229.6 21.55 230.1 22.5 L231.75 22.35 Q232.8 22.3 232.9 22.95 235.75 20.15 236.75 16.6 236.75 24.0 236.35 26.8 235.55 32.25 232.8 34.1 232.5 32.75 233.15 29.75 233.7 27.0 233.05 25.5 229.25 23.65 224.8 24.8 220.2 25.95 219.35 29.45 L215.8 29.45 Q215.65 26.2 216.65 20.1 217.55 14.45 217.1 10.8 220.5 12.6 223.3 16.3 L221.4 18.1 Q219.5 19.45 219.3 19.7 216.9 21.75 217.5 25.35 L220.55 24.9 223.2 23.95 225.5 22.75 Q226.95 21.85 227.15 20.8 227.25 20.15 226.45 18.8 225.7 17.45 225.85 16.7 226.0 16.05 227.2 15.6 L228.8 14.9 Q229.35 15.85 229.5 18.65" fill="#ffffff" fill-rule="evenodd" stroke="none"/>
    <path d="M185.4 16.45 Q186.7 15.05 188.7 11.75 L189.45 12.4 Q189.9 12.9 190.4 12.9 L187.45 16.8 Q185.65 18.95 183.45 19.55 183.55 20.25 184.55 20.15 L186.3 19.95 Q186.2 21.7 184.35 22.15 L180.45 22.4 Q179.95 21.9 179.9 20.6 L179.9 18.3 Q183.15 19.0 185.4 16.45" fill="#ffffff" fill-rule="evenodd" stroke="none"/>
    <path d="M149.65 18.15 L152.75 17.65 Q154.55 16.9 155.6 16.85 155.1 18.7 152.5 19.4 L147.95 20.4 Q147.25 17.85 147.4 14.6 L147.65 14.6 Q148.55 14.75 148.95 16.1 L149.65 18.15" fill="#ffffff" fill-rule="evenodd" stroke="none"/>
    <path d="M139.05 20.75 Q138.2 19.25 138.45 17.15 139.85 19.65 142.2 20.85 145.0 22.3 148.1 21.1 148.5 22.1 148.55 23.65 148.55 25.25 148.1 26.2 149.35 26.4 152.2 25.4 L156.3 25.2 156.3 27.5 Q152.9 27.5 150.6 28.2 147.7 29.1 147.1 31.0 146.7 32.3 147.3 33.75 L148.35 36.1 Q147.5 36.3 146.3 35.65 145.0 34.95 144.0 35.1 L144.85 32.85 145.7 30.6 143.8 29.8 Q142.6 29.35 142.15 28.75 142.95 27.3 145.7 27.5 145.25 26.05 143.9 24.85 L141.3 22.95 Q139.7 21.8 139.05 20.75" fill="#ffffff" fill-rule="evenodd" stroke="none"/>
    <path d="M262.95 23.65 L263.15 23.35 Q263.2 23.05 263.4 23.1 266.6 23.15 267.85 25.9 268.95 28.25 268.5 32.15 L267.4 32.85 Q266.7 33.15 266.35 33.45 265.55 34.1 264.3 36.25 263.1 38.2 262.0 38.8 260.75 36.2 263.2 33.6 L265.15 31.55 Q266.15 30.4 266.2 29.35 266.3 27.8 264.85 26.4 263.2 24.8 262.95 23.65" fill="#ffffff" fill-rule="evenodd" stroke="none"/>
    <path d="M188.95 22.7 Q191.5 19.85 195.6 21.1 192.5 22.0 190.85 23.7 188.9 25.65 188.7 28.85 L185.85 28.85 Q187.4 24.45 188.95 22.7" fill="#ffffff" fill-rule="evenodd" stroke="none"/>
    <path d="M272.9 37.45 Q273.05 39.0 272.3 40.35 L271.1 42.7 Q270.2 42.6 269.25 41.8 268.3 40.95 267.55 40.85 266.7 38.15 269.0 36.85 269.95 36.25 271.0 36.4 272.15 36.55 272.9 37.45" fill="#ffffff" fill-rule="evenodd" stroke="none"/>
    <path d="M300.25 40.05 Q301.5 41.15 301.35 43.3 299.15 43.0 297.9 41.9 296.4 40.6 297.25 38.8 299.3 39.2 300.25 40.05" fill="#ffffff" fill-rule="evenodd" stroke="none"/>
    <path d="M294.7 49.4 L293.25 49.0 Q292.5 48.55 292.0 48.55 L293.6 45.05 295.4 41.75 Q296.8 42.3 295.8 44.95 294.55 48.4 294.7 49.4" fill="#ffffff" fill-rule="evenodd" stroke="none"/>
    <path d="M313.05 49.25 Q312.65 50.7 312.45 55.75 312.3 60.05 311.35 61.7 L305.8 61.35 Q303.05 60.65 302.15 59.15 L305.85 59.3 309.25 59.0 Q310.25 58.35 310.85 56.5 311.3 54.9 311.2 53.5 311.05 50.8 308.8 49.15 306.45 47.5 303.7 48.55 301.85 49.3 301.15 51.8 300.5 54.25 301.35 57.15 298.9 55.55 300.1 51.05 301.15 47.15 303.3 45.15 307.1 45.35 309.25 46.1 312.0 47.1 313.05 49.25" fill="#ffffff" fill-rule="evenodd" stroke="none"/>
    <path d="M84.9 70.1 Q87.2 72.65 85.95 75.9 82.55 75.05 79.2 77.3 75.7 80.2 73.8 81.15 L72.55 80.55 71.3 80.15 Q68.95 79.85 66.6 80.85 65.05 81.5 63.25 82.95 62.9 82.8 63.05 81.8 63.2 80.8 62.8 80.55 L68.85 77.15 Q72.0 75.0 73.65 72.5 L72.7 71.3 71.4 70.25 70.2 69.1 68.85 68.25 Q67.4 68.0 65.6 69.85 63.6 71.8 62.1 71.8 L64.3 67.95 66.4 64.0 Q69.1 59.5 72.85 58.25 72.5 59.3 70.4 60.8 68.25 62.3 67.75 63.45 L69.65 65.85 72.0 68.25 Q73.85 69.95 74.7 69.95 75.8 70.05 77.45 68.5 79.0 67.05 79.5 65.75 79.8 65.55 80.1 65.9 L80.6 66.55 82.7 68.2 84.9 70.1 M73.65 76.9 Q75.85 75.85 78.25 74.0 L82.3 70.65 Q79.35 70.05 77.0 72.6 76.35 73.3 75.25 74.9 L73.65 76.9" fill="#ffffff" fill-rule="evenodd" stroke="none"/>
    <path d="M340.4 70.8 L339.8 73.0 Q339.45 74.15 339.55 75.2 339.65 76.0 340.7 78.35 341.5 80.2 341.1 81.4 340.9 82.05 340.15 82.65 339.25 83.35 338.55 83.25 337.2 83.05 337.55 80.5 337.9 77.35 337.6 76.75 337.1 75.95 335.45 75.55 333.95 75.2 333.75 73.9 L337.2 72.95 Q338.9 72.15 339.0 70.35 339.85 70.25 340.4 70.8" fill="#ffffff" fill-rule="evenodd" stroke="none"/>
    <path d="M327.95 78.15 L331.2 75.75 Q333.1 78.85 337.8 84.15 341.6 89.3 341.95 95.0 L338.1 89.45 334.2 83.95 Q332.85 83.95 332.05 85.3 L330.65 87.35 Q328.5 86.9 329.5 84.85 L330.45 83.0 Q330.95 81.9 330.8 81.1 330.5 79.55 328.6 80.45 L327.05 81.15 325.55 81.1 Q325.75 79.55 327.95 78.15" fill="#ffffff" fill-rule="evenodd" stroke="none"/>
    <path d="M347.75 88.05 Q345.95 87.45 345.85 84.8 345.75 82.7 346.6 80.4 347.95 81.0 347.9 83.6 L347.75 88.05" fill="#ffffff" fill-rule="evenodd" stroke="none"/>
    <path d="M41.1 103.65 Q40.6 105.2 39.3 107.15 L37.25 110.5 Q36.2 112.55 36.1 114.7 L33.3 113.95 30.75 113.0 Q30.7 111.75 31.4 110.55 L32.45 108.45 Q36.1 109.8 37.9 106.45 39.4 103.65 39.1 98.85 L41.35 98.85 Q41.75 101.45 41.1 103.65" fill="#ffffff" fill-rule="evenodd" stroke="none"/>
    <path d="M48.85 101.0 L50.45 101.8 Q50.35 102.65 49.2 103.9 48.15 105.0 48.2 105.9 48.25 107.0 49.55 107.55 L52.4 107.8 Q54.05 107.6 55.15 106.85 56.4 106.05 56.4 104.9 L58.75 105.9 Q60.15 106.5 60.5 107.45 57.0 107.85 55.7 108.85 55.35 110.4 56.3 111.5 57.45 112.8 57.5 113.55 53.25 112.4 49.45 113.65 45.55 115.0 44.55 118.2 43.35 118.05 41.9 117.55 L39.45 116.65 Q40.05 115.2 43.5 108.95 46.1 104.3 47.05 100.7 47.85 100.5 48.85 101.0" fill="#ffffff" fill-rule="evenodd" stroke="none"/>
    <path d="M361.6 115.05 Q363.4 109.95 367.5 111.45 L364.75 113.95 Q362.85 115.35 362.25 116.7 362.05 118.4 363.05 120.1 364.1 121.9 364.1 123.15 L361.85 123.8 359.6 124.45 359.35 123.75 Q359.25 123.3 358.85 123.3 359.6 122.25 360.3 119.55 L361.6 115.05" fill="#ffffff" fill-rule="evenodd" stroke="none"/>
    <path d="M349.95 112.75 Q352.55 113.8 353.25 118.2 L353.9 126.3 Q351.9 126.5 350.6 125.8 349.55 125.15 348.85 123.75 350.2 122.45 350.05 118.75 349.85 113.5 349.95 112.75" fill="#ffffff" fill-rule="evenodd" stroke="none"/>
    <path d="M370.0 116.4 Q372.25 118.0 372.85 120.9 L370.55 121.7 367.75 122.05 369.4 119.75 Q370.25 118.25 370.0 116.4" fill="#ffffff" fill-rule="evenodd" stroke="none"/>
    <path d="M381.85 146.1 Q381.75 147.95 382.35 150.3 L383.5 154.25 Q384.8 159.0 383.0 161.9 382.25 161.6 382.35 160.15 382.45 158.45 382.15 157.95 378.9 157.05 376.95 159.6 L375.55 162.0 374.2 164.3 Q371.95 162.65 373.9 160.15 L375.6 158.2 Q376.5 157.05 376.5 156.25 376.5 155.5 375.55 154.15 L374.1 152.15 372.8 150.2 Q372.15 149.1 371.85 148.05 373.5 147.05 376.35 146.6 L381.85 146.1 M377.25 147.9 Q376.25 148.65 376.15 150.0 376.05 151.4 376.85 152.2 377.8 153.1 379.45 152.6 L380.05 150.3 Q380.3 148.9 380.05 147.8 L377.25 147.9" fill="#ffffff" fill-rule="evenodd" stroke="none"/>
    <path d="M364.9 148.65 L366.25 148.45 367.75 148.5 Q368.8 149.75 369.4 152.0 370.0 154.35 369.8 156.5 369.25 162.0 364.5 161.5 L366.45 159.45 Q367.55 158.15 367.75 156.7 368.05 154.45 367.05 152.1 366.3 150.3 364.9 148.65" fill="#ffffff" fill-rule="evenodd" stroke="none"/>
    <path d="M372.85 187.95 Q371.9 189.85 373.65 192.0 374.65 193.15 377.2 194.95 380.05 196.95 380.6 197.5 381.3 197.0 381.15 195.45 L381.0 192.85 Q383.25 192.9 383.45 196.1 L383.3 201.6 Q380.6 201.65 378.7 199.25 L377.25 197.25 375.35 195.65 372.85 196.8 Q371.55 197.55 370.85 198.45 368.95 196.5 369.35 191.85 L370.55 184.5 379.9 184.5 Q380.55 187.05 382.65 188.95 383.65 189.9 386.95 192.0 389.7 193.75 390.95 195.3 392.75 197.5 392.9 200.6 392.05 199.2 389.8 198.35 L385.8 196.95 Q384.6 193.2 382.05 190.3 379.8 187.75 376.35 185.6 373.75 186.2 372.85 187.95" fill="#ffffff" fill-rule="evenodd" stroke="none"/>
    <path d="M373.6 226.55 Q373.6 227.85 374.1 228.65 375.3 228.85 376.05 228.35 L377.25 227.25 Q376.85 225.65 376.25 225.0 L379.8 225.1 383.3 225.55 382.9 226.4 382.3 227.25 Q381.8 228.6 382.15 232.25 382.5 235.9 381.9 237.3 L384.4 239.9 Q385.95 241.4 386.0 243.35 L383.5 242.85 380.75 242.65 Q381.1 241.6 380.35 240.85 L378.8 239.8 376.05 241.1 373.15 240.95 Q373.35 240.25 374.35 239.15 375.3 238.15 375.4 237.45 375.55 236.2 374.2 234.5 372.95 232.95 371.85 232.75 369.85 232.45 368.7 234.5 368.25 235.2 367.2 238.4 366.5 236.95 367.15 235.25 L368.6 232.6 370.4 229.2 Q371.3 227.1 371.3 224.85 371.25 224.7 371.35 224.6 L371.45 224.4 374.1 224.4 Q373.6 225.25 373.6 226.55 M377.15 234.35 Q378.4 235.65 380.2 235.15 380.55 233.85 380.55 232.05 380.55 230.0 380.05 229.05 380.05 229.95 378.6 230.4 376.95 230.9 376.65 231.5 375.95 233.05 377.15 234.35" fill="#ffffff" fill-rule="evenodd" stroke="none"/>
    <path d="M365.6 272.95 Q363.75 274.2 363.75 275.75 363.7 277.05 365.3 278.1 366.85 279.15 366.7 280.55 361.4 280.6 360.35 274.35 360.05 272.55 359.9 268.55 L359.5 262.7 366.4 264.5 Q370.7 265.8 372.6 267.65 375.05 269.9 374.9 271.35 374.85 271.95 373.95 272.75 L372.6 274.0 371.6 275.5 370.8 277.0 Q370.05 276.55 369.85 274.7 369.6 272.85 368.95 272.45 367.5 271.65 365.6 272.95 M366.4 266.4 L364.45 266.45 362.6 266.95 362.6 268.8 Q362.65 269.8 363.0 270.2 364.7 270.75 365.4 269.15 L365.85 267.7 Q366.15 266.8 366.4 266.4" fill="#ffffff" fill-rule="evenodd" stroke="none"/>
    <path d="M338.35 296.65 L342.5 296.85 Q346.05 296.65 347.35 296.8 348.45 296.9 350.0 297.6 351.7 298.35 351.75 298.9 L351.1 300.05 350.2 301.35 348.8 303.75 Q349.4 304.75 351.25 304.45 L354.6 304.15 354.8 305.4 Q354.95 306.15 355.15 306.15 354.0 309.1 351.45 311.6 348.9 314.1 345.55 315.6 L343.05 316.7 Q341.6 317.25 340.75 317.15 339.7 317.05 337.05 315.45 335.05 314.2 334.8 312.5 337.45 311.95 339.8 313.1 L343.4 315.45 346.3 313.7 348.8 311.35 349.65 310.35 Q350.15 309.65 350.05 308.95 349.95 308.15 348.9 307.6 348.05 307.1 347.35 307.1 346.4 307.15 345.55 308.9 344.7 310.7 343.85 310.65 342.45 310.6 342.7 308.9 342.9 307.65 343.55 306.7 L341.15 306.1 338.6 305.55 Q335.9 304.6 336.5 301.9 337.3 302.05 338.45 302.55 L340.45 303.45 342.75 304.2 345.1 304.3 Q346.1 304.0 347.2 301.65 L348.8 298.35 Q346.85 297.6 343.35 298.9 339.85 300.25 337.6 299.5 337.4 298.85 337.85 298.1 338.35 297.25 338.35 296.65" fill="#ffffff" fill-rule="evenodd" stroke="none"/>
    <path d="M66.9 307.45 Q66.05 311.1 63.85 313.25 L66.55 318.6 Q68.15 321.6 69.65 323.6 L70.8 324.95 71.8 326.4 Q68.0 325.85 65.45 321.25 64.8 320.15 63.5 317.25 L61.6 313.55 Q64.75 308.85 65.0 301.65 67.95 303.1 66.9 307.45" fill="#ffffff" fill-rule="evenodd" stroke="none"/>
    <path d="M54.2 310.1 Q53.25 308.35 55.4 308.6 56.7 308.75 57.3 310.35 57.9 311.8 57.65 313.6 57.4 315.45 56.4 316.35 L53.55 316.5 Q53.5 315.4 54.65 314.5 55.7 313.6 55.65 312.7 L55.1 311.55 54.2 310.1" fill="#ffffff" fill-rule="evenodd" stroke="none"/>
    <path d="M65.25 329.55 Q64.5 331.4 62.6 331.5 L61.8 326.8 Q61.2 324.15 59.9 323.15 61.4 322.95 63.0 324.0 L65.6 325.7 Q65.85 328.0 65.25 329.55" fill="#ffffff" fill-rule="evenodd" stroke="none"/>
    <path d="M320.9 336.8 Q321.85 335.45 323.1 335.35 324.5 335.2 325.6 336.85 325.1 337.25 324.25 337.5 L322.65 337.8 Q322.55 340.05 323.1 342.3 L324.3 346.0 Q323.15 346.15 321.95 347.65 320.8 349.1 319.5 349.15 319.4 348.8 319.6 348.35 L319.8 347.45 Q319.65 346.4 318.45 345.75 317.25 345.1 316.0 345.45 315.4 345.65 314.65 346.9 314.05 348.05 313.3 347.85 313.25 345.45 311.6 343.9 310.7 343.05 308.15 341.8 305.7 340.55 304.75 339.55 303.2 338.0 303.25 335.45 302.5 335.2 301.55 335.45 L299.85 335.85 Q299.75 334.75 300.4 333.7 301.1 332.7 302.25 332.3 303.4 331.95 306.0 332.3 L310.6 332.6 313.45 331.9 315.85 330.8 Q318.45 329.65 320.2 331.2 317.4 331.45 315.7 333.1 313.8 334.8 313.55 337.7 L313.45 339.85 Q313.45 341.25 313.85 342.05 314.5 343.45 317.1 343.65 319.6 343.9 320.9 342.8 319.8 341.6 319.9 339.75 319.95 338.1 320.9 336.8 M307.35 338.55 Q308.9 339.15 309.85 338.0 310.8 336.9 309.9 335.7 308.5 334.9 307.75 335.9 307.0 336.85 307.35 338.55" fill="#ffffff" fill-rule="evenodd" stroke="none"/>
    <path d="M95.9 335.6 L94.45 337.3 Q93.45 338.3 93.25 339.0 92.95 340.05 93.75 341.35 95.25 341.6 96.2 341.0 L97.55 339.55 98.75 337.95 Q99.55 337.2 100.8 337.25 L100.8 338.35 Q100.9 338.95 101.4 338.95 100.85 340.5 99.15 341.75 97.55 342.95 95.45 343.35 93.3 343.85 91.5 343.35 89.5 342.75 88.5 341.05 89.15 339.8 91.6 336.75 93.7 334.15 94.3 332.0 94.8 332.1 95.3 332.6 L96.15 333.3 Q96.5 334.55 95.9 335.6" fill="#ffffff" fill-rule="evenodd" stroke="none"/>
    <path d="M305.4 345.05 Q306.1 345.35 306.4 346.0 306.7 346.8 306.15 347.6 L304.75 347.25 Q304.2 346.95 304.05 346.45 303.75 345.45 304.25 345.05 304.7 344.75 305.4 345.05" fill="#ffffff" fill-rule="evenodd" stroke="none"/>
    <path d="M85.4 345.6 Q86.75 347.2 89.4 348.05 L94.85 348.95 Q94.4 349.55 93.5 351.1 L92.0 353.5 Q90.05 356.05 87.4 354.9 88.0 353.55 87.7 352.25 L86.65 350.15 85.45 348.05 Q85.0 346.8 85.4 345.6" fill="#ffffff" fill-rule="evenodd" stroke="none"/>
    <path d="M101.95 347.0 Q103.05 348.0 103.75 347.85 103.25 349.9 104.25 351.5 105.1 353.05 106.6 353.05 107.7 353.05 108.75 352.25 L110.5 350.35 Q112.75 347.7 114.5 347.85 114.6 348.2 114.3 348.75 L113.8 349.65 112.3 353.45 110.95 357.55 Q109.15 362.45 106.6 364.1 106.05 361.7 105.0 360.55 103.65 359.0 101.4 359.4 101.15 357.65 102.25 355.5 103.35 353.35 103.2 351.8 103.1 350.6 101.45 349.75 99.8 348.85 99.65 348.1 99.6 347.7 99.85 347.15 L100.25 346.55 Q100.95 346.1 101.95 347.0" fill="#ffffff" fill-rule="evenodd" stroke="none"/>
    <path d="M143.7 368.35 Q142.75 368.5 141.55 367.7 140.45 367.0 139.6 367.2 138.2 367.55 138.3 370.45 138.4 373.4 139.9 373.7 141.0 373.9 143.05 372.9 L146.4 371.0 Q149.65 369.2 151.9 368.7 155.2 368.0 157.85 369.6 L157.1 375.8 156.15 381.75 Q154.35 380.7 154.65 377.45 155.45 373.65 155.45 372.0 153.6 370.3 150.45 370.85 147.75 371.35 145.55 373.15 L143.65 374.95 Q142.6 376.15 142.6 376.65 142.55 377.8 143.7 378.55 144.45 379.05 146.35 379.65 148.35 380.35 149.05 380.7 150.25 381.35 150.35 382.3 L135.1 377.95 Q136.65 375.5 137.1 371.85 137.65 367.45 135.5 365.9 135.65 364.85 136.5 362.35 137.25 360.2 137.2 358.45 138.3 358.6 138.8 359.85 139.4 361.35 139.9 361.7 141.45 362.7 144.2 362.0 L148.4 360.7 Q148.95 362.8 147.05 363.9 145.45 364.8 142.7 364.8 L143.6 366.2 Q144.1 367.35 143.7 368.35" fill="#ffffff" fill-rule="evenodd" stroke="none"/>
    <path d="M39.45 136.95 Q38.45 137.75 36.0 138.3 L32.25 139.25 31.85 137.85 Q31.45 137.0 31.4 136.4 L33.85 136.3 36.15 135.65 Q38.7 135.0 39.45 136.95" fill="#ffffff" fill-rule="evenodd" stroke="none"/>
    <path d="M115.85 30.05 Q116.3 30.9 115.65 31.95 L114.45 33.5 116.0 36.2 Q117.1 37.7 118.5 37.65 L119.3 37.35 120.15 37.2 Q120.4 37.6 120.3 38.65 120.15 39.7 120.3 39.95 117.45 40.1 116.15 41.2 114.65 42.55 115.05 45.5 114.05 45.9 113.15 45.1 112.1 44.15 111.55 44.1 111.6 43.45 112.1 43.25 L113.35 43.1 Q113.35 42.5 112.45 42.4 L111.15 42.1 Q112.55 39.95 111.65 37.3 110.8 34.85 108.8 34.05 109.1 32.1 111.65 31.35 L113.8 30.8 115.85 30.05" fill="#ffffff" fill-rule="evenodd" stroke="none"/>
    <path d="M38.2 144.6 Q35.15 144.4 33.0 145.75 31.45 146.7 29.85 149.0 L27.2 152.75 Q25.5 154.7 23.4 155.3 L23.4 159.45 20.55 158.25 Q18.85 157.65 17.05 157.75 17.05 156.3 18.95 155.55 20.95 154.75 21.05 153.75 21.15 152.55 19.95 151.55 19.55 151.2 17.6 150.0 L18.05 148.55 Q18.4 147.8 19.0 147.7 19.7 147.6 20.6 148.55 L21.75 149.9 22.85 151.4 Q23.55 152.35 24.1 152.45 24.95 152.6 25.6 151.85 L26.15 150.75 Q26.4 149.2 25.0 147.8 23.45 146.2 23.4 145.85 23.2 144.55 24.05 143.55 24.8 142.6 26.15 142.3 26.5 143.8 26.95 144.6 27.55 145.65 28.5 145.85 29.85 146.15 31.2 145.4 31.9 145.05 33.45 143.7 36.45 141.2 38.9 141.7 L38.5 143.05 Q38.1 143.8 38.2 144.6" fill="#ffffff" fill-rule="evenodd" stroke="none"/>
    <path d="M18.15 144.15 Q19.65 144.35 20.3 144.85 21.2 145.5 21.05 147.0 L18.15 147.0 18.15 144.15" fill="#ffffff" fill-rule="evenodd" stroke="none"/>
    <path d="M105.9 45.2 Q107.2 44.3 108.4 44.25 108.55 44.65 107.9 45.5 L106.55 47.15 Q104.65 49.5 105.5 50.95 105.8 51.5 109.05 51.95 111.95 52.35 111.7 53.7 111.55 54.65 110.0 54.5 L107.7 54.7 Q107.25 55.85 107.85 56.65 108.35 57.45 109.5 57.4 108.8 58.9 107.05 58.75 105.55 58.6 104.25 57.4 102.5 55.85 100.95 52.8 99.5 49.95 98.95 47.4 101.25 48.95 103.8 46.9 L105.9 45.2" fill="#ffffff" fill-rule="evenodd" stroke="none"/>
    <path d="M233.9 367.85 Q232.1 369.3 231.9 369.85 232.75 371.2 234.15 371.95 235.75 372.75 237.6 372.4 L238.3 371.35 238.85 370.1 Q240.7 370.45 240.65 372.65 240.6 374.5 239.5 376.0 L236.2 374.7 Q234.35 374.05 232.45 374.15 227.95 374.25 224.65 377.95 222.25 380.7 220.3 385.6 219.65 385.85 219.05 385.05 218.4 384.2 217.65 384.3 218.2 382.55 219.5 380.05 L221.55 376.0 Q221.15 375.55 220.0 375.2 L218.0 374.6 Q215.5 373.8 215.85 372.15 216.15 370.7 217.95 371.2 L219.45 371.65 220.7 371.85 Q221.8 371.6 222.15 369.45 222.5 367.05 223.35 366.55 224.55 366.85 225.1 368.9 225.7 371.3 226.25 371.85 L228.45 370.25 230.1 368.0 Q232.15 365.15 234.8 365.4 235.3 366.7 233.9 367.85" fill="#ffffff" fill-rule="evenodd" stroke="none"/>
    <path d="M238.85 378.0 Q239.95 380.05 238.55 380.9 237.6 381.5 234.65 381.85 L229.95 382.5 Q227.6 383.2 227.35 384.75 227.1 386.15 228.15 386.85 228.7 387.25 230.65 387.85 230.0 390.5 227.0 390.15 224.3 389.8 222.8 388.0 224.25 387.3 224.95 384.45 225.7 381.25 226.5 380.45 227.5 379.45 229.4 379.4 L233.0 379.75 236.45 379.85 Q238.1 379.5 238.85 378.0" fill="#ffffff" fill-rule="evenodd" stroke="none"/>
    <path d="M24.35 210.75 Q24.5 212.1 23.55 213.5 22.6 215.0 22.7 215.9 22.8 217.15 24.3 218.05 L26.85 219.6 28.55 219.1 29.75 218.05 30.75 220.35 Q31.2 221.75 31.25 223.2 L27.8 224.3 23.9 224.95 Q25.2 222.0 23.1 219.9 21.25 218.05 18.1 217.75 18.05 219.65 19.15 221.95 20.25 224.35 20.35 225.95 L19.6 226.35 18.8 226.8 Q17.8 226.5 17.45 224.6 17.0 222.5 16.45 222.05 15.95 222.55 15.75 223.75 L15.55 225.9 Q15.15 228.5 13.0 228.1 13.0 226.55 14.35 223.55 15.5 220.85 15.2 218.9 15.05 217.9 14.3 217.0 L12.75 215.5 Q10.75 213.65 11.05 211.3 L13.15 211.05 15.2 211.3 16.0 213.9 Q16.5 215.3 17.45 215.5 19.2 215.85 20.7 213.7 L22.7 210.05 Q23.2 210.0 23.6 210.3 L24.35 210.75" fill="#ffffff" fill-rule="evenodd" stroke="none"/>
    <path d="M27.0 243.85 L27.3 243.85 Q30.1 244.5 30.65 249.0 31.1 252.95 29.75 256.3 25.75 255.1 24.7 254.45 22.3 252.95 22.3 249.85 22.85 249.95 23.95 250.8 L25.75 252.2 Q28.0 253.7 28.8 251.55 29.4 250.0 28.45 247.5 27.25 244.9 27.0 243.85" fill="#ffffff" fill-rule="evenodd" stroke="none"/>
    <path d="M34.9 257.6 Q34.25 258.25 34.35 260.45 33.05 260.4 30.0 261.3 27.55 261.95 25.9 261.3 L29.75 258.45 Q32.2 256.9 34.9 257.6" fill="#ffffff" fill-rule="evenodd" stroke="none"/>
    <path d="M30.75 280.8 Q31.5 279.3 35.15 278.75 L40.7 277.75 42.0 277.9 Q41.8 278.55 40.8 279.2 39.95 279.8 39.9 280.5 39.8 282.35 42.95 282.9 45.8 283.35 47.9 282.5 49.5 285.65 50.1 287.65 51.0 290.75 50.8 294.25 46.75 295.3 39.35 295.55 40.85 294.0 41.35 292.3 42.05 290.05 40.3 288.95 L38.2 289.4 35.9 289.65 Q35.2 288.2 36.5 287.35 L37.65 286.7 38.65 285.95 Q38.65 284.2 37.15 282.15 35.45 279.95 34.1 280.8 33.35 281.25 33.55 282.35 32.85 282.3 32.1 281.65 L30.75 280.8 M48.2 291.5 Q48.6 290.6 48.4 289.4 48.25 288.2 47.55 287.55 46.75 286.8 45.55 287.2 44.7 288.45 45.1 290.45 45.5 292.5 46.8 292.5 47.75 292.5 48.2 291.5" fill="#ffffff" fill-rule="evenodd" stroke="none"/>
    <path d="M192.9 375.65 Q193.1 378.45 191.35 382.1 189.65 385.7 190.0 388.4 188.65 387.1 186.6 387.9 184.35 389.1 183.2 389.25 183.1 387.8 184.4 386.5 L186.55 384.4 185.05 380.15 Q184.0 377.5 182.55 377.25 181.65 377.05 180.6 377.75 179.4 378.6 178.65 378.65 178.7 376.25 180.55 374.45 182.25 372.75 184.8 372.2 L189.55 372.4 Q191.95 373.3 192.9 375.65 M187.05 379.2 Q187.55 380.45 189.05 380.25 190.15 379.4 190.0 377.25 189.25 376.55 187.1 376.65 186.55 378.05 187.05 379.2" fill="#ffffff" fill-rule="evenodd" stroke="none"/>
    <path d="M269.85 357.4 Q270.55 356.95 270.75 355.8 L270.8 353.45 Q270.75 350.2 272.2 349.35 L272.8 355.1 Q273.2 358.5 274.4 359.7 274.95 360.2 275.75 360.45 L277.45 360.55 279.05 358.95 Q280.0 357.65 280.75 357.85 282.05 358.15 281.05 360.05 280.05 361.9 279.1 361.8 L281.45 364.1 Q282.9 365.5 284.2 366.0 282.9 367.7 280.85 366.25 L277.85 363.7 Q275.0 364.4 273.1 366.85 271.85 368.45 270.3 372.05 L267.65 377.4 Q265.85 380.05 263.3 381.0 263.45 380.0 262.9 379.9 263.8 379.85 264.95 378.65 266.05 377.45 266.75 375.85 267.5 374.15 267.35 373.0 267.1 371.65 265.7 371.4 267.8 370.15 268.9 367.15 270.0 364.05 269.0 361.55 268.55 360.45 266.15 359.55 264.0 358.7 263.9 357.25 264.4 356.2 265.05 356.2 265.5 356.2 266.35 356.8 268.5 358.2 269.85 357.4 M273.8 363.95 Q275.0 362.9 275.35 361.8 273.7 360.4 272.2 362.2 270.75 364.0 271.9 365.85 L273.8 363.95" fill="#ffffff" fill-rule="evenodd" stroke="none"/>
    <path d="M19.85 177.9 Q21.35 178.5 23.65 180.25 L26.0 182.2 Q27.4 183.35 28.2 183.4 L29.35 183.05 30.55 182.7 32.4 185.4 34.3 188.0 Q32.25 187.3 28.0 188.1 L21.55 188.85 Q19.6 188.65 18.3 187.3 17.2 186.15 16.45 184.0 15.35 184.05 14.65 184.85 L13.55 186.4 15.15 187.85 16.7 189.35 Q18.3 191.35 17.7 194.15 16.25 194.25 15.6 192.85 14.9 191.25 14.1 191.15 12.9 190.95 12.4 191.65 12.1 192.2 12.0 193.5 L11.75 195.6 Q11.45 196.7 10.65 197.0 10.25 191.95 11.9 186.45 L14.95 177.4 Q17.6 176.95 19.85 177.9 M18.85 182.6 L18.95 183.85 Q19.3 185.7 21.3 186.7 23.4 187.75 25.15 186.4 L24.8 184.2 23.9 182.7 Q23.25 181.95 21.5 181.35 L19.1 181.4 Q18.9 181.7 18.85 182.6" fill="#ffffff" fill-rule="evenodd" stroke="none"/>
    <path d="M384.3 122.15 Q400.0 159.3 400.0 200.0 400.0 240.7 384.3 277.85 369.1 313.75 341.45 341.45 313.75 369.1 277.85 384.3 240.7 400.0 200.0 400.0 159.3 400.0 122.15 384.3 86.25 369.1 58.55 341.45 30.9 313.75 15.7 277.85 0.0 240.7 0.0 200.0 0.0 169.4 8.85 140.85 11.8 131.4 15.7 122.15 29.55 89.45 53.75 63.55 L58.55 58.55 60.3 56.85 Q87.35 30.45 122.15 15.7 159.3 0.0 200.0 0.0 L209.75 0.25 Q245.15 1.9 277.85 15.7 313.75 30.9 341.45 58.55 369.1 86.25 384.3 122.15 M346.75 261.9 Q334.65 290.45 312.6 312.5 290.55 334.55 262.0 346.65 232.4 359.15 200.0 359.15 167.6 359.15 138.0 346.65 109.45 334.55 87.4 312.5 65.35 290.45 53.25 261.9 40.75 232.3 40.75 199.9 40.75 169.1 52.05 140.85 L53.25 137.9 Q56.75 129.6 61.15 121.85 71.75 102.95 87.4 87.3 106.25 68.45 129.9 56.85 133.9 54.9 138.0 53.15 167.6 40.65 200.0 40.65 L209.75 40.95 Q236.9 42.55 262.0 53.15 290.55 65.25 312.6 87.3 334.65 109.35 346.75 137.9 359.25 167.5 359.25 199.9 359.25 232.3 346.75 261.9 Z" fill="none" stroke="#ffffff" stroke-linecap="butt" stroke-linejoin="miter-clip" stroke-width="4.0"/>
  </g>
</svg>
