<?xml version="1.0" encoding="UTF-8" standalone="no"?>
<svg xmlns:ffdec="https://www.free-decompiler.com/flash" xmlns:xlink="http://www.w3.org/1999/xlink" ffdec:objectType="shape" height="275.35px" width="275.4px" xmlns="http://www.w3.org/2000/svg">
  <g transform="matrix(1.0, 0.0, 0.0, 1.0, -62.3, -61.95)">
    <path d="M335.7 255.8 L256.2 335.3 143.8 335.3 64.3 255.8 64.3 143.45 143.8 63.95 256.2 63.95 335.7 143.45 335.7 255.8 Z" fill="none" stroke="#ffffff" stroke-linecap="butt" stroke-linejoin="miter-clip" stroke-width="4.0"/>
    <path d="M320.8 249.65 L246.25 245.85 250.05 320.4 200.0 265.0 149.95 320.4 153.8 245.85 79.2 249.65 134.65 199.6 79.2 149.6 153.8 153.4 149.95 78.85 200.0 134.25 250.05 78.85 246.25 153.4 320.8 149.6 265.35 199.6 320.8 249.65 Z" fill="none" stroke="#ffffff" stroke-linecap="butt" stroke-linejoin="miter-clip" stroke-width="4.0"/>
  </g>
</svg>
