<?xml version="1.0" encoding="UTF-8" standalone="no"?>
<svg xmlns:ffdec="https://www.free-decompiler.com/flash" xmlns:xlink="http://www.w3.org/1999/xlink" ffdec:objectType="shape" height="306.1px" width="309.35px" xmlns="http://www.w3.org/2000/svg">
  <g transform="matrix(1.0, 0.0, 0.0, 1.0, -45.3, -39.8)">
    <path d="M187.95 48.8 L187.95 343.9" fill="none" stroke="#ffffff" stroke-linecap="butt" stroke-linejoin="miter-clip" stroke-width="4.0"/>
    <path d="M154.95 65.15 L154.95 343.35" fill="none" stroke="#ffffff" stroke-linecap="butt" stroke-linejoin="miter-clip" stroke-width="4.0"/>
    <path d="M220.95 53.15 L220.95 343.55" fill="none" stroke="#ffffff" stroke-linecap="butt" stroke-linejoin="miter-clip" stroke-width="4.0"/>
    <path d="M121.95 81.1 L121.95 330.0" fill="none" stroke="#ffffff" stroke-linecap="butt" stroke-linejoin="miter-clip" stroke-width="4.0"/>
    <path d="M254.0 69.0 L254.0 343.65" fill="none" stroke="#ffffff" stroke-linecap="butt" stroke-linejoin="miter-clip" stroke-width="4.0"/>
    <path d="M287.0 85.5 L287.0 319.5" fill="none" stroke="#ffffff" stroke-linecap="butt" stroke-linejoin="miter-clip" stroke-width="4.0"/>
    <path d="M88.9 96.8 L88.9 288.3" fill="none" stroke="#ffffff" stroke-linecap="butt" stroke-linejoin="miter-clip" stroke-width="4.0"/>
    <path d="M55.9 200.25 L55.9 246.6" fill="none" stroke="#ffffff" stroke-linecap="butt" stroke-linejoin="miter-clip" stroke-width="4.0"/>
    <path d="M320.0 101.0 L320.0 277.3" fill="none" stroke="#ffffff" stroke-linecap="butt" stroke-linejoin="miter-clip" stroke-width="4.0"/>
    <path d="M352.5 235.4 L267.85 342.75 132.1 342.75 47.5 235.4 77.7 101.55 200.0 42.0 322.25 101.55 352.5 235.4 Z" fill="none" stroke="#ffffff" stroke-linecap="butt" stroke-linejoin="miter-clip" stroke-width="4.0"/>
  </g>
</svg>
