<?xml version="1.0" encoding="UTF-8" standalone="no"?>
<svg xmlns:ffdec="https://www.free-decompiler.com/flash" xmlns:xlink="http://www.w3.org/1999/xlink" ffdec:objectType="shape" height="322.1px" width="322.5px" xmlns="http://www.w3.org/2000/svg">
  <g transform="matrix(1.0, 0.0, 0.0, 1.0, -38.75, -39.2)">
    <path d="M294.95 200.45 Q294.95 226.3 284.95 249.95 275.3 272.75 257.7 290.35 240.1 307.95 217.3 317.55 193.7 327.55 167.85 327.55 142.0 327.55 118.4 317.55 95.55 307.9 78.0 290.35 60.4 272.75 50.75 249.95 40.75 226.3 40.75 200.45" fill="none" stroke="#ffffff" stroke-linecap="butt" stroke-linejoin="miter-clip" stroke-width="4.0"/>
    <path d="M105.1 203.85 Q105.1 178.0 115.05 154.35 124.75 131.55 142.3 114.0 159.9 96.4 182.7 86.75 206.3 76.75 232.2 76.75 258.05 76.75 281.65 86.75 304.45 96.4 322.0 114.0 339.6 131.55 349.25 154.35 359.25 178.0 359.25 203.85" fill="none" stroke="#ffffff" stroke-linecap="butt" stroke-linejoin="miter-clip" stroke-width="4.0"/>
    <path d="M200.2 105.75 Q219.5 105.75 237.1 113.2 254.1 120.4 267.2 133.5 280.3 146.6 287.5 163.6 294.95 181.2 294.95 200.5 294.95 219.75 287.5 237.35 280.3 254.35 267.2 267.45 254.1 280.55 237.1 287.75 219.5 295.2 200.2 295.2 180.95 295.2 163.35 287.75 146.35 280.55 133.25 267.45 120.1 254.35 112.95 237.35 105.5 219.75 105.5 200.5 105.5 181.2 112.95 163.6 120.15 146.6 133.25 133.5 146.35 120.4 163.35 113.2 180.95 105.75 200.2 105.75 Z" fill="none" stroke="#ffffff" stroke-linecap="butt" stroke-linejoin="miter-clip" stroke-width="4.0"/>
    <path d="M201.5 295.4 Q175.65 295.4 152.05 285.4 129.25 275.75 111.65 258.15 94.05 240.6 84.4 217.75 74.4 194.15 74.4 168.3 74.4 142.1 84.4 118.4 94.05 95.55 111.65 78.05 129.2 60.6 152.05 51.05 175.6 41.2 201.5 41.2" fill="none" stroke="#ffffff" stroke-linecap="butt" stroke-linejoin="miter-clip" stroke-width="4.0"/>
    <path d="M199.3 105.15 Q225.15 105.15 248.75 115.15 271.6 124.8 289.15 142.4 306.75 159.95 316.4 182.75 326.4 206.4 326.4 232.25 326.4 258.1 316.4 281.7 306.75 304.5 289.15 322.1 271.6 339.7 248.75 349.35 225.15 359.3 199.3 359.3" fill="none" stroke="#ffffff" stroke-linecap="butt" stroke-linejoin="miter-clip" stroke-width="4.0"/>
  </g>
</svg>
