<?xml version="1.0" encoding="UTF-8" standalone="no"?>
<svg xmlns:ffdec="https://www.free-decompiler.com/flash" xmlns:xlink="http://www.w3.org/1999/xlink" ffdec:objectType="shape" height="297.0px" width="320.05px" xmlns="http://www.w3.org/2000/svg">
  <g transform="matrix(1.0, 0.0, 0.0, 1.0, -39.85, -51.0)">
    <path d="M273.0 231.3 Q267.0 245.3 256.05 256.05 245.1 266.8 230.9 272.7 216.2 278.85 200.1 278.85 184.0 278.85 169.3 272.7 155.1 266.8 144.15 256.05 133.2 245.3 127.2 231.3 121.0 216.85 121.0 201.0 121.0 185.15 127.2 170.7 133.2 156.75 144.15 145.95 155.1 135.15 169.3 129.25 184.0 123.15 200.1 123.15 216.2 123.15 230.9 129.25 245.1 135.15 256.05 145.95 267.0 156.7 273.0 170.7 279.25 185.15 279.25 201.0 279.25 216.85 273.0 231.3 Z" fill="none" stroke="#ffffff" stroke-linecap="butt" stroke-linejoin="miter-clip" stroke-width="4.0"/>
    <path d="M309.55 127.4 Q323.75 133.3 334.7 144.1 345.65 154.85 351.65 168.85 357.9 183.3 357.9 199.15 357.9 215.0 351.65 229.45 345.65 243.4 334.7 254.2 323.75 264.95 309.55 270.9 294.85 277.0 278.8 277.0 262.65 277.0 248.0 270.9 233.75 264.95 222.8 254.2 211.85 243.4 205.85 229.45 199.65 215.0 199.65 199.15 199.65 183.3 205.85 168.85 211.85 154.85 222.8 144.1 233.75 133.3 248.0 127.4 262.65 121.3 278.8 121.3 294.85 121.3 309.55 127.4 Z" fill="none" stroke="#ffffff" stroke-linecap="butt" stroke-linejoin="miter-clip" stroke-width="4.0"/>
    <path d="M176.95 147.1 Q187.9 157.9 193.9 171.85 200.1 186.3 200.1 202.15 200.1 218.0 193.9 232.45 187.9 246.45 176.95 257.2 166.0 268.0 151.8 273.9 137.1 280.0 121.0 280.0 104.9 280.0 90.2 273.9 76.0 268.0 65.05 257.2 54.1 246.45 48.1 232.45 41.85 218.0 41.85 202.15 41.85 186.3 48.1 171.85 54.1 157.9 65.05 147.1 76.0 136.35 90.2 130.4 104.9 124.3 121.0 124.3 137.1 124.3 151.8 130.4 166.0 136.35 176.95 147.1 Z" fill="none" stroke="#ffffff" stroke-linecap="butt" stroke-linejoin="miter-clip" stroke-width="4.0"/>
    <path d="M315.0 236.05 Q321.25 250.55 321.25 266.4 321.25 282.25 315.0 296.7 309.0 310.65 298.05 321.45 287.1 332.2 272.9 338.1 258.2 344.25 242.1 344.25 226.0 344.25 211.3 338.1 197.1 332.2 186.15 321.45 175.2 310.65 169.2 296.7 163.0 282.25 163.0 266.4 163.0 250.55 169.2 236.05 175.2 222.1 186.15 211.35 197.1 200.55 211.3 194.65 226.0 188.55 242.1 188.55 258.2 188.55 272.9 194.65 287.1 200.55 298.05 211.35 309.0 222.1 315.0 236.05 Z" fill="none" stroke="#ffffff" stroke-linecap="butt" stroke-linejoin="miter-clip" stroke-width="4.0"/>
    <path d="M89.3 237.8 Q95.3 223.85 106.25 213.1 117.2 202.3 131.4 196.4 146.1 190.25 162.2 190.25 178.3 190.25 193.0 196.4 207.2 202.3 218.15 213.1 229.1 223.85 235.1 237.8 241.35 252.3 241.35 268.15 241.35 283.95 235.1 298.45 229.1 312.4 218.15 323.2 207.2 333.95 193.0 339.85 178.3 346.0 162.2 346.0 146.1 346.0 131.4 339.85 117.2 333.95 106.25 323.2 95.3 312.4 89.3 298.45 83.1 283.95 83.1 268.15 83.1 252.3 89.3 237.8 Z" fill="none" stroke="#ffffff" stroke-linecap="butt" stroke-linejoin="miter-clip" stroke-width="4.0"/>
    <path d="M159.55 55.45 Q175.65 55.45 190.35 61.6 204.5 67.5 215.5 78.3 226.45 89.05 232.45 103.0 238.65 117.5 238.65 133.35 238.65 149.15 232.45 163.65 226.45 177.6 215.5 188.4 204.5 199.15 190.35 205.05 175.65 211.2 159.55 211.2 143.45 211.2 128.75 205.05 114.55 199.15 103.6 188.4 92.65 177.6 86.65 163.65 80.4 149.15 80.4 133.35 80.4 117.5 86.65 103.0 92.65 89.05 103.6 78.3 114.55 67.5 128.75 61.6 143.45 55.45 159.55 55.45 Z" fill="none" stroke="#ffffff" stroke-linecap="butt" stroke-linejoin="miter-clip" stroke-width="4.0"/>
    <path d="M311.55 100.55 Q317.8 115.0 317.8 130.85 317.8 146.7 311.55 161.15 305.55 175.15 294.6 185.9 283.65 196.7 269.45 202.6 254.75 208.7 238.65 208.7 222.55 208.7 207.85 202.6 193.65 196.7 182.7 185.9 171.75 175.15 165.75 161.15 159.55 146.7 159.55 130.85 159.55 115.0 165.75 100.55 171.75 86.6 182.7 75.8 193.65 65.05 207.85 59.1 222.55 53.0 238.65 53.0 254.75 53.0 269.45 59.1 283.65 65.05 294.6 75.8 305.55 86.6 311.55 100.55 Z" fill="none" stroke="#ffffff" stroke-linecap="butt" stroke-linejoin="miter-clip" stroke-width="4.0"/>
  </g>
</svg>
